<?xml version="1.0" standalone="no"?>
<!DOCTYPE svg PUBLIC "-//W3C//DTD SVG 20010904//EN"
 "http://www.w3.org/TR/2001/REC-SVG-20010904/DTD/svg10.dtd">
<svg version="1.0" xmlns="http://www.w3.org/2000/svg"
 width="90.000000pt" height="90.000000pt" viewBox="0 0 90.000000 90.000000"
 preserveAspectRatio="xMidYMid meet">
<metadata>
Created by potrace 1.14, written by Peter Selinger 2001-2017
</metadata>
<g transform="translate(0.000000,90.000000) scale(0.100000,-0.100000)"
fill="#000000" stroke="none">
<path d="M260 782 l-185 -108 -3 -225 -2 -225 182 -104 c101 -58 192 -105 203
-105 11 0 102 47 203 105 l182 105 -2 224 -3 224 -80 48 -80 47 -3 -222 -2
-222 -103 -59 c-56 -32 -106 -58 -112 -58 -5 0 -56 26 -113 59 l-103 59 3 125
3 125 100 57 c55 32 105 58 112 58 7 0 33 -12 58 -27 36 -22 45 -33 45 -55 0
-16 -2 -28 -5 -28 -2 0 -26 13 -53 29 l-48 28 -80 -47 -79 -47 -3 -94 -3 -95
85 -48 86 -48 27 20 c16 10 52 32 81 47 l52 28 0 223 0 222 -80 46 c-43 25
-83 46 -87 46 -4 -1 -91 -49 -193 -108z m251 11 c40 -23 49 -33 49 -55 0 -16
-3 -28 -6 -28 -4 0 -28 13 -53 28 l-46 28 -138 -80 -137 -80 2 -160 3 -159
135 -78 135 -78 45 26 c25 14 86 50 137 80 l91 53 0 181 c0 99 2 183 5 186 3
2 15 0 26 -7 23 -12 23 -4 22 -239 0 -79 -4 -148 -8 -152 -14 -14 -308 -182
-318 -182 -11 0 -304 168 -319 183 -4 4 -8 30 -8 57 0 26 1 109 1 184 l1 136
158 91 c86 50 161 91 166 92 4 0 30 -12 57 -27z m47 -342 l3 -59 -51 -31 c-28
-17 -52 -31 -55 -31 -3 0 -27 14 -55 31 l-50 31 0 58 0 58 53 30 52 29 50 -28
50 -28 3 -60z"/>
</g>
</svg>
